<svg xmlns="http://www.w3.org/2000/svg" version="1.1" xmlns:xlink="http://www.w3.org/1999/xlink" xmlns:svgjs="http://svgjs.dev/svgjs" width="2000" height="1999" viewBox="0 0 2000 1999"><g transform="matrix(1,0,0,1,-0.431486880466764,-0.4312711370263287)"><svg viewBox="0 0 343 343" data-background-color="#ffffff" preserveAspectRatio="xMidYMid meet" height="1999" width="2000" xmlns="http://www.w3.org/2000/svg" xmlns:xlink="http://www.w3.org/1999/xlink"><g id="tight-bounds" transform="matrix(1,0,0,1,0.0740000000000407,0.07400000000001228)"><svg viewBox="0 0 342.85155851775386 342.85155851775386" height="342.85155851775386" width="342.85155851775386"><g><svg></svg></g><g><svg viewBox="0 0 342.85155851775386 342.85155851775386" height="342.85155851775386" width="342.85155851775386"><g><path d="M0 171.426c0-94.676 76.75-171.426 171.426-171.426 94.676 0 171.426 76.75 171.426 171.426 0 94.676-76.75 171.426-171.426 171.426-94.676 0-171.426-76.75-171.426-171.426zM171.426 333.269c89.384 0 161.843-72.46 161.843-161.843 0-89.384-72.46-161.843-161.843-161.843-89.384 0-161.843 72.46-161.843 161.843 0 89.384 72.46 161.843 161.843 161.843z" data-fill-palette-color="tertiary" fill="#ffffff" stroke="transparent"></path><ellipse rx="164.56874808852186" ry="164.56874808852186" cx="171.42577925887693" cy="171.42577925887693" fill="#ffffff" stroke="transparent" stroke-width="0" fill-opacity="1" data-fill-palette-color="tertiary"></ellipse></g><g transform="matrix(1,0,0,1,64.84655864529837,118.29631804391872)"><svg viewBox="0 0 213.1584412271571 106.25892242991641" height="106.25892242991641" width="213.1584412271571"><g><svg viewBox="0 0 213.1584412271571 106.25892242991641" height="106.25892242991641" width="213.1584412271571"><g><svg viewBox="0 0 213.1584412271571 106.25892242991641" height="106.25892242991641" width="213.1584412271571"><g><svg viewBox="0 0 213.1584412271571 106.25892242991641" height="106.25892242991641" width="213.1584412271571"><g><svg viewBox="0 0 213.1584412271571 106.25892242991641" height="106.25892242991641" width="213.1584412271571" id="textblock"><g><svg viewBox="0 0 213.1584412271571 106.25892242991641" height="106.25892242991641" width="213.1584412271571"><g transform="matrix(1,0,0,1,0,0)"><svg width="213.1584412271571" viewBox="1.2699999809265137 -32.400001525878906 64.99000549316406 32.400001525878906" height="106.25892242991641" data-palette-color="#ffffff"><path d="M5.2-25.34L5.2-32.4 30.88-32.4 30.88-6.47 24.41 0 20.09 0 20.09-25.34 5.2-25.34ZM12.48-13.57L12.48-6.47 18.38-6.47 18.38 0 7.76 0 1.27-6.47 1.27-13.57 12.48-13.57ZM46.58-32.4L46.58 0 42.28 0 35.79-6.47 35.79-25.93 42.28-32.4 46.58-32.4ZM55.47-25.93L48.29-25.93 48.29-32.4 59.79-32.4 66.26-25.93 66.26-19.41 55.47-19.41 55.47-25.93ZM59.79 0L48.29 0 48.29-6.47 55.47-6.47 55.47-11.21 66.26-11.21 66.26-6.47 59.79 0Z" opacity="1" transform="matrix(1,0,0,1,0,0)" fill="#000000" class="undefined-text-0" data-fill-palette-color="quaternary" id="text-0"></path></svg></g></svg></g></svg></g></svg></g><g></g></svg></g></svg></g></svg></g></svg></g><defs></defs></svg><rect width="342.85155851775386" height="342.85155851775386" fill="none" stroke="none" visibility="hidden"></rect></g></svg></g></svg>